<?xml version="1.0" encoding="UTF-8"?>
<!DOCTYPE svg PUBLIC "-//W3C//DTD SVG 1.1//EN" "http://www.w3.org/Graphics/SVG/1.1/DTD/svg11.dtd">
<svg xmlns="http://www.w3.org/2000/svg" xml:space="preserve" width="24px" height="24px" version="1.1" style="shape-rendering:geometricPrecision; text-rendering:geometricPrecision; image-rendering:optimizeQuality; fill-rule:evenodd; clip-rule:evenodd"
viewBox="0 0 24 24"
 xmlns:xlink="http://www.w3.org/1999/xlink">
 <defs>
  <style type="text/css">
   <![CDATA[
    .fil0 {fill:black}
   ]]>
  </style>
 </defs>
 <g id="Layer_x0020_1">
  <g>
   <path class="fil0" d="M17 11l0 0c1,0 1,0 1,0l0 1c0,0 0,0 0,0 1,0 1,1 1,1l1 -1c0,0 1,0 1,0l0 1c0,0 0,0 0,0l0 1c0,0 0,0 0,1 0,0 0,0 0,0l1 1c1,0 1,0 1,0l0 1c0,0 0,0 -1,0l0 1c-1,0 -1,0 -1,0 0,0 0,1 0,1l0 1c0,0 0,0 0,0l0 1c0,0 -1,0 -1,0l-1 0c0,0 0,0 0,0 0,0 -1,0 -1,0l0 1c0,0 0,0 -1,0l0 0c-1,0 -1,0 -1,0l0 -1c0,0 0,0 0,0 -1,0 -1,-1 -1,-1l-1 1c0,0 -1,0 -1,0l0 -1c-1,0 -1,0 0,0l0 -1c0,0 0,0 0,0 0,-1 0,-1 0,-1l-1 -1c-1,0 -1,0 -1,0l0 -1c0,0 0,0 1,0l0 -1c0,0 1,0 1,0 0,0 0,0 0,-1l0 -1c-1,0 -1,0 0,0l0 -1c0,0 1,0 1,0l0 1c1,0 1,0 1,0 0,-1 1,-1 1,-1l0 -1c0,0 0,0 1,0zm0 3c-2,0 -3,1 -3,3 0,1 1,3 3,3 2,0 3,-2 3,-3 0,-2 -1,-3 -3,-3l0 0zm0 0l0 0 0 0z"/>
  </g>
  <path class="fil0" d="M10 3l5 0c2,0 5,2 5,5 0,1 0,1 0,1 -1,1 -1,1 -2,1 0,0 -1,0 -1,0 -4,0 -7,3 -7,6 0,1 0,1 0,2 0,1 0,1 0,2 -1,0 -1,0 -2,0 -2,-1 -4,-3 -4,-5l0 -6c0,-3 2,-6 6,-6zm-2 3c1,0 2,1 2,2 0,0 -1,1 -2,1 -1,0 -1,-1 -1,-1 0,-1 0,-2 1,-2z"/>
  <circle class="fil0" cx="3" cy="3" r="2"/>
 </g>
</svg>
